<?xml version="1.0" standalone="no"?>
<!DOCTYPE svg PUBLIC "-//W3C//DTD SVG 20010904//EN"
 "http://www.w3.org/TR/2001/REC-SVG-20010904/DTD/svg10.dtd">
<svg version="1.0" xmlns="http://www.w3.org/2000/svg"
 width="872.000000pt" height="872.000000pt" viewBox="0 0 872.000000 872.000000"
 preserveAspectRatio="xMidYMid meet">
<metadata>
Created by potrace 1.14, written by Peter Selinger 2001-2017
</metadata>
<g transform="translate(0.000000,872.000000) scale(0.100000,-0.100000)"
fill="#000000" stroke="none">
<path d="M749 8366 c-2 -2 -20 -5 -39 -7 -19 -2 -39 -5 -45 -8 -5 -3 -19 -7
-30 -8 -60 -9 -234 -88 -281 -128 -6 -5 -30 -25 -53 -43 -147 -120 -248 -283
-285 -462 -19 -94 -15 -268 8 -365 17 -70 81 -217 97 -223 5 -2 9 -9 9 -15 0
-13 91 -119 144 -167 113 -102 245 -169 408 -205 9 -2 48 -7 85 -10 37 -4 71
-9 76 -12 4 -2 7 0 7 5 0 5 12 7 28 5 94 -14 275 32 402 102 109 61 227 173
296 281 63 99 112 233 117 321 1 18 4 33 7 33 18 0 -8 279 -29 319 -5 9 -9 18
-9 21 -1 12 -15 47 -28 73 -8 15 -12 27 -9 27 4 0 -3 13 -14 29 -12 16 -21 34
-21 40 0 6 -4 11 -8 11 -5 0 -13 10 -19 23 -31 66 -200 217 -299 267 -27 14
-52 29 -55 33 -3 5 -10 8 -15 8 -5 -1 -36 8 -69 19 -33 10 -73 22 -90 26 -35
7 -280 16 -286 10z"/>
<path d="M5797 6214 c-1 -2 -38 -5 -82 -8 -124 -8 -209 -17 -290 -32 -63 -11
-70 -13 -70 -14 0 -1 -13 -3 -30 -5 -16 -2 -41 -6 -55 -10 -14 -3 -36 -8 -50
-11 -98 -20 -313 -88 -452 -143 -94 -37 -292 -133 -296 -143 -2 -5 -12 -8 -22
-8 -10 0 -20 -4 -22 -8 -1 -4 -30 -23 -63 -41 -74 -41 -245 -153 -265 -172 -8
-8 -35 -29 -60 -46 -25 -17 -54 -40 -64 -52 -11 -11 -22 -21 -26 -21 -15 0
-255 -229 -340 -325 -63 -70 -190 -234 -190 -244 0 -5 -4 -11 -8 -13 -12 -5
-77 -102 -74 -110 1 -5 -2 -8 -7 -8 -5 0 -16 -12 -24 -27 -44 -83 -127 -230
-137 -240 -6 -7 -10 -15 -9 -19 1 -3 -14 -40 -34 -82 -62 -135 -109 -264 -153
-427 -10 -35 -17 -69 -34 -150 -16 -76 -18 -89 -25 -142 -4 -26 -9 -59 -11
-73 -24 -149 -23 -559 2 -720 3 -19 7 -53 9 -75 3 -22 14 -83 25 -135 11 -52
23 -106 26 -120 13 -62 80 -265 121 -364 51 -126 156 -340 174 -356 3 -3 16
-25 30 -50 13 -25 26 -47 29 -50 14 -14 70 -102 70 -109 0 -5 3 -11 8 -13 4
-1 32 -37 63 -79 31 -41 64 -82 73 -91 9 -9 16 -19 16 -22 0 -9 91 -107 195
-211 106 -106 188 -178 270 -240 28 -21 52 -41 55 -44 3 -3 12 -10 21 -16 9
-5 64 -42 122 -81 58 -40 120 -78 137 -85 16 -8 30 -17 30 -21 0 -5 6 -8 14
-8 7 0 19 -7 26 -15 7 -9 15 -13 18 -11 3 3 17 -3 31 -12 39 -27 202 -104 316
-150 169 -68 429 -144 575 -168 14 -2 41 -7 60 -10 19 -3 53 -8 75 -10 21 -3
51 -7 65 -9 71 -14 208 -20 415 -20 242 1 392 10 515 30 14 2 45 7 70 10 25 3
52 8 60 10 8 2 31 7 50 10 19 3 56 10 81 16 26 6 55 12 65 14 11 2 19 4 19 5
0 1 7 3 15 5 67 13 272 79 361 115 154 63 383 184 476 252 29 21 56 38 61 38
5 0 19 11 32 25 13 14 27 25 32 25 4 0 17 8 27 18 11 9 33 28 50 42 120 96
278 254 379 380 29 36 58 72 65 80 62 70 215 312 301 473 56 107 57 107 34
116 -13 5 -86 34 -163 65 -77 31 -146 56 -152 56 -7 0 -13 4 -13 8 0 5 -6 9
-12 10 -15 1 -89 27 -133 47 -16 8 -106 43 -200 80 -93 36 -181 70 -195 77
-14 6 -29 12 -35 13 -9 2 -107 41 -200 80 -100 41 -178 66 -184 59 -4 -5 -29
-43 -56 -84 -28 -41 -56 -79 -63 -83 -6 -4 -18 -20 -26 -35 -14 -26 -182 -202
-241 -253 -17 -14 -60 -45 -95 -70 -36 -24 -67 -46 -70 -49 -5 -5 -41 -26
-100 -57 -19 -10 -38 -22 -42 -28 -4 -5 -8 -7 -8 -3 0 4 -28 -6 -62 -22 -35
-15 -101 -39 -148 -53 -75 -22 -113 -32 -220 -52 -121 -23 -410 -24 -567 -1
-110 16 -293 72 -398 122 -77 36 -179 95 -183 106 -2 4 -10 8 -17 8 -7 0 -15
3 -17 8 -1 4 -29 26 -60 50 -63 46 -205 185 -253 246 -69 88 -133 188 -178
279 -27 54 -50 103 -51 110 -1 6 -4 17 -7 22 -8 14 -48 139 -53 167 -3 13 -5
24 -7 26 -2 3 -4 10 -14 67 -4 28 -9 55 -10 61 -25 117 -25 553 -1 592 2 4 7
28 10 52 7 53 9 62 35 160 12 41 26 83 31 92 6 10 10 22 10 28 0 21 120 254
152 295 4 6 25 34 47 63 132 182 313 336 518 444 43 22 78 39 78 38 0 -1 18 6
40 15 22 10 45 19 50 20 6 1 30 9 55 18 25 8 59 17 77 20 17 3 35 7 40 10 8 5
38 10 128 22 28 4 61 9 75 11 67 11 364 3 410 -11 8 -2 33 -7 55 -11 57 -8
213 -53 247 -70 15 -8 28 -12 28 -9 0 14 262 -129 298 -162 7 -7 17 -13 22
-13 12 0 140 -109 200 -170 76 -77 196 -224 220 -270 7 -14 16 -27 20 -30 3
-3 17 -24 30 -47 l23 -41 46 16 c25 10 49 22 53 27 4 6 8 7 8 3 0 -6 45 9 95
32 22 11 77 33 85 34 7 2 222 85 245 96 11 5 81 32 155 60 74 29 154 61 177
71 24 10 45 19 47 19 3 0 15 4 28 9 13 5 26 9 30 10 4 1 33 13 63 26 31 14 62
25 70 25 8 0 15 5 15 10 0 6 8 10 18 10 10 0 37 9 60 20 22 11 48 20 56 20 8
0 17 4 20 9 3 4 26 14 51 21 43 12 82 40 56 40 -7 0 -10 4 -7 9 3 5 -1 14 -9
21 -8 7 -15 17 -15 22 0 5 -16 34 -35 64 -19 30 -35 59 -35 64 0 6 -4 10 -8
10 -5 0 -14 10 -21 23 -29 54 -70 116 -98 147 -13 14 -23 28 -23 31 0 10 -101
135 -180 222 -119 133 -337 337 -359 337 -6 0 -11 4 -11 10 0 5 -21 24 -47 41
-27 18 -50 36 -53 39 -3 4 -25 20 -50 35 -25 15 -47 31 -50 35 -4 5 -46 32
-152 95 -78 47 -279 148 -295 148 -7 0 -13 4 -13 8 0 3 -8 9 -17 12 -10 4 -34
13 -53 20 -85 35 -305 109 -360 122 -8 2 -54 13 -102 24 -47 11 -99 23 -115
25 -15 3 -52 10 -81 16 -29 5 -56 9 -60 8 -4 -1 -18 2 -32 5 -26 7 -83 13
-205 23 -73 5 -424 12 -428 8z"/>
<path d="M94 6105 c-1 -5 -2 -1272 -1 -2815 l2 -2805 767 0 768 -1 0 2816 0
2815 -766 0 c-502 0 -768 -3 -770 -10z"/>
</g>
</svg>
